<?xml version="1.0" encoding="UTF-8" standalone="no"?>
<!-- Created with Inkscape (http://www.inkscape.org/) -->

<svg
   width="64pt"
   height="64pt"
   viewBox="0 0 22.577778 22.577778"
   version="1.1"
   id="svg831"
   inkscape:version="1.1.1 (3bf5ae0d25, 2021-09-20)"
   sodipodi:docname="1 - Trophy.svg"
   inkscape:export-filename="C:\Users\User\Desktop\DESEMBER\3 - Pencil and Sharpener.png"
   inkscape:export-xdpi="576"
   inkscape:export-ydpi="576"
   xmlns:inkscape="http://www.inkscape.org/namespaces/inkscape"
   xmlns:sodipodi="http://sodipodi.sourceforge.net/DTD/sodipodi-0.dtd"
   xmlns="http://www.w3.org/2000/svg"
   xmlns:svg="http://www.w3.org/2000/svg"
   xmlns:rdf="http://www.w3.org/1999/02/22-rdf-syntax-ns#"
   xmlns:cc="http://creativecommons.org/ns#"
   xmlns:dc="http://purl.org/dc/elements/1.1/">
  <defs
     id="defs825">
    <pattern
       id="EMFhbasepattern"
       patternUnits="userSpaceOnUse"
       width="6"
       height="6"
       x="0"
       y="0" />
    <pattern
       id="EMFhbasepattern-9"
       patternUnits="userSpaceOnUse"
       width="6"
       height="6"
       x="0"
       y="0" />
    <pattern
       id="EMFhbasepattern-0"
       patternUnits="userSpaceOnUse"
       width="6"
       height="6"
       x="0"
       y="0" />
    <pattern
       id="EMFhbasepattern-7"
       patternUnits="userSpaceOnUse"
       width="6"
       height="6"
       x="0"
       y="0" />
    <pattern
       id="EMFhbasepattern-2"
       patternUnits="userSpaceOnUse"
       width="6"
       height="6"
       x="0"
       y="0" />
    <pattern
       id="EMFhbasepattern-98"
       patternUnits="userSpaceOnUse"
       width="6"
       height="6"
       x="0"
       y="0" />
    <pattern
       id="EMFhbasepattern-6"
       patternUnits="userSpaceOnUse"
       width="6"
       height="6"
       x="0"
       y="0" />
    <pattern
       id="EMFhbasepattern-01"
       patternUnits="userSpaceOnUse"
       width="6"
       height="6"
       x="0"
       y="0" />
    <pattern
       id="EMFhbasepattern-07"
       patternUnits="userSpaceOnUse"
       width="6"
       height="6"
       x="0"
       y="0" />
    <pattern
       id="EMFhbasepattern-8"
       patternUnits="userSpaceOnUse"
       width="6"
       height="6"
       x="0"
       y="0" />
    <pattern
       id="EMFhbasepattern-4"
       patternUnits="userSpaceOnUse"
       width="6"
       height="6"
       x="0"
       y="0" />
    <pattern
       id="EMFhbasepattern-40"
       patternUnits="userSpaceOnUse"
       width="6"
       height="6"
       x="0"
       y="0" />
    <pattern
       id="EMFhbasepattern-08"
       patternUnits="userSpaceOnUse"
       width="6"
       height="6"
       x="0"
       y="0" />
    <pattern
       id="EMFhbasepattern-04"
       patternUnits="userSpaceOnUse"
       width="6"
       height="6"
       x="0"
       y="0" />
    <pattern
       id="EMFhbasepattern-014"
       patternUnits="userSpaceOnUse"
       width="6"
       height="6"
       x="0"
       y="0" />
    <pattern
       id="EMFhbasepattern-27"
       patternUnits="userSpaceOnUse"
       width="6"
       height="6"
       x="0"
       y="0" />
    <pattern
       id="EMFhbasepattern-09"
       patternUnits="userSpaceOnUse"
       width="6"
       height="6"
       x="0"
       y="0" />
    <pattern
       id="EMFhbasepattern-5"
       patternUnits="userSpaceOnUse"
       width="6"
       height="6"
       x="0"
       y="0" />
    <pattern
       id="EMFhbasepattern-018"
       patternUnits="userSpaceOnUse"
       width="6"
       height="6"
       x="0"
       y="0" />
  </defs>
  <sodipodi:namedview
     id="base"
     pagecolor="#ffffff"
     bordercolor="#666666"
     borderopacity="1.0"
     inkscape:pageopacity="0.0"
     inkscape:pageshadow="2"
     inkscape:zoom="4.2070313"
     inkscape:cx="42.666667"
     inkscape:cy="42.666667"
     inkscape:document-units="pt"
     inkscape:current-layer="layer1"
     showgrid="false"
     units="pt"
     inkscape:window-width="960"
     inkscape:window-height="1013"
     inkscape:window-x="951"
     inkscape:window-y="-9"
     inkscape:window-maximized="0"
     inkscape:pagecheckerboard="true"
     inkscape:showpageshadow="false"
     inkscape:object-paths="false"
     inkscape:snap-intersection-paths="true"
     inkscape:snap-smooth-nodes="true"
     inkscape:snap-midpoints="true"
     showguides="true"
     inkscape:snap-bbox="true"
     inkscape:bbox-nodes="true"
     inkscape:snap-nodes="false"
     inkscape:snap-global="true">
    <inkscape:grid
       type="xygrid"
       id="grid1378" />
    <sodipodi:guide
       position="0.97013831,21.607643"
       orientation="78.000048,0"
       id="guide1380"
       inkscape:locked="false" />
    <sodipodi:guide
       position="0.97013831,0.97013129"
       orientation="0,78.000005"
       id="guide1382"
       inkscape:locked="false" />
    <sodipodi:guide
       position="21.607639,0.97013129"
       orientation="-78.000048,0"
       id="guide1384"
       inkscape:locked="false" />
    <sodipodi:guide
       position="21.607639,21.607643"
       orientation="0,-78.000005"
       id="guide1386"
       inkscape:locked="false" />
  </sodipodi:namedview>
  <metadata
     id="metadata828">
    <rdf:RDF>
      <cc:Work
         rdf:about="">
        <dc:format>image/svg+xml</dc:format>
        <dc:type
           rdf:resource="http://purl.org/dc/dcmitype/StillImage" />
      </cc:Work>
    </rdf:RDF>
  </metadata>
  <g
     inkscape:label="Icon"
     inkscape:groupmode="layer"
     id="layer1"
     transform="translate(0,-274.42223)"
     style="display:inline">
    <g
       id="g703"
       style="display:inline;stroke-width:0.794878"
       transform="matrix(1.2580546,0,0,1.2580546,-37.737155,-38.905056)">
      <g
         id="g3879"
         style="stroke-width:0.794878">
        <path
           style="color:#000000;fill:#3a4d5c;fill-opacity:1;stroke-width:0.794878;stroke-linecap:round;stroke-linejoin:round;-inkscape-stroke:none"
           d="m 37.283199,262.13086 h 8.037109 c 0.145408,-5.1e-4 0.263156,-0.11826 0.263672,-0.26367 v -8.73242 c 0,-0.72749 -0.594772,-1.32227 -1.322265,-1.32227 H 33.677734 c -0.727493,0 -1.322265,0.59478 -1.322265,1.32227 v 2.51367 z"
           id="path190027"
           sodipodi:nodetypes="cccsssscc" />
        <path
           style="color:#000000;fill:#a7e3fa;stroke-width:0.794878;stroke-linecap:round;stroke-linejoin:round;-inkscape-stroke:none"
           d="M 38.308597,261.07227 H 43.4668 c 0.581371,0 1.058594,-0.47528 1.058594,-1.05665 v -6.08593 c 0,-0.58136 -0.477223,-1.0586 -1.058594,-1.0586 h -8.996097 c -0.581367,0 -1.05664,0.47723 -1.056641,1.0586 v 1.7207 z"
           id="path190219"
           sodipodi:nodetypes="csssssscc" />
        <path
           style="color:#000000;fill:#fafcbd;fill-opacity:1;stroke-width:0.794878;stroke-linecap:round;stroke-linejoin:round;-inkscape-stroke:none"
           d="m 31.296799,255.91361 h 5.556766 c 0.441507,0 0.792715,0.35328 0.792718,0.79479 v 0.26355 c -3e-6,0.44151 -0.351211,0.79323 -0.792718,0.79323 -1.852255,0 -3.704511,0 -5.556766,0 z"
           id="path140868"
           sodipodi:nodetypes="csssccc" />
        <path
           id="path35379"
           style="color:#000000;fill:#e8cf76;fill-opacity:1;stroke-width:0.794878;stroke-linecap:round;stroke-linejoin:round;-inkscape-stroke:none"
           d="m 31.296799,256.86136 v 0.90382 c 1.852255,0 3.70451,0 5.556766,0 0.441507,0 0.792713,-0.35172 0.792718,-0.79323 v -0.11059 z"
           sodipodi:nodetypes="cccscc" />
        <path
           id="path22151"
           style="color:#000000;fill:#143441;fill-opacity:1;stroke-width:0.794878;stroke-linecap:round;stroke-linejoin:round;-inkscape-stroke:none"
           d="m 33.677533,251.81257 c -0.499237,0 -0.935226,0.28005 -1.160137,0.69091 0.187851,-0.10283 0.402714,-0.16174 0.63097,-0.16174 h 10.584365 c 0.727494,0 1.321885,0.59491 1.321885,1.3224 v 8.46666 h 0.265615 a 0.26460996,0.26460996 0 0 0 0.263552,-0.26355 v -8.73228 c 0,-0.72749 -0.594392,-1.3224 -1.321885,-1.3224 z" />
        <path
           style="color:#000000;fill:#3a4d5c;fill-opacity:1;stroke-width:0.794878;stroke-linecap:round;stroke-linejoin:round;-inkscape-stroke:none"
           d="m 31.560547,261.60156 c -0.435243,0 -0.792972,0.35968 -0.792969,0.79492 v 0.26368 c 0,0.87362 0.714272,1.58789 1.587891,1.58789 h 13.228515 c 0.87362,0 1.587891,-0.71427 1.587891,-1.58789 v -0.26368 c 3e-6,-0.43524 -0.359678,-0.79492 -0.794922,-0.79492 z"
           id="path195843" />
        <path
           style="color:#000000;fill:#87d1ee;fill-opacity:1;stroke-width:0.794878;stroke-linecap:round;stroke-linejoin:round;-inkscape-stroke:none"
           d="m 36.764202,261.60156 v 0.79492 c 0,0.43524 0.183386,0.79297 0.61861,0.79297 h 3.173829 c 0.435224,0 0.53564,-0.35773 0.53564,-0.79297 v -0.79492 z"
           id="path22149"
           sodipodi:nodetypes="ccssscc" />
        <path
           style="color:#000000;fill:#fafcbd;fill-opacity:1;stroke-width:0.794878;stroke-linecap:round;stroke-linejoin:round;-inkscape-stroke:none"
           d="m 31.693158,259.74956 h 5.556766 c 0.441507,0 0.793231,0.35327 0.793234,0.79478 v 0.26355 c -3e-6,0.44151 -0.351727,0.79478 -0.793234,0.79478 h -5.556766 z"
           id="path183907"
           sodipodi:nodetypes="csssscc" />
        <path
           id="path35483"
           style="color:#000000;fill:#e8cf76;fill-opacity:1;stroke-width:0.794878;stroke-linecap:round;stroke-linejoin:round;-inkscape-stroke:none"
           d="m 31.693158,260.56552 v 1.03715 h 5.556766 c 0.441507,0 0.793229,-0.35327 0.793234,-0.79478 v -0.24237 z" />
        <path
           style="color:#000000;fill:#fafcbd;fill-opacity:1;stroke-width:0.794878;stroke-linecap:round;stroke-linejoin:round;-inkscape-stroke:none"
           d="m 32.619141,258.29428 h 5.55664 c 0.149265,0 0.263676,0.11635 0.263672,0.26562 v 0.39649 c 10e-7,0.14925 -0.114413,0.26562 -0.263672,0.26562 h -5.55664 c -0.149257,0 -0.263672,-0.11636 -0.263672,-0.26562 v -0.39649 c -4e-6,-0.14926 0.114409,-0.26562 0.263672,-0.26562 z"
           id="path188905" />
        <path
           style="color:#000000;fill:#3a4d5c;fill-opacity:1;stroke-width:0.794878;stroke-linecap:round;stroke-linejoin:round;-inkscape-stroke:none"
           d="m 35.132812,256.57553 a 0.26460996,0.26460996 0 0 0 -0.263671,0.26367 v 2.64648 a 0.26460996,0.26460996 0 0 0 0.451171,0.1875 l 0.607422,-0.60742 0.605469,0.60742 a 0.26460996,0.26460996 0 0 0 0.451172,-0.1875 v -2.64648 a 0.26460996,0.26460996 0 0 0 -0.263672,-0.26367 z"
           id="path188707" />
        <path
           id="path23757"
           style="color:#000000;fill:#8ed1f7;fill-opacity:1;stroke-width:0.794878;stroke-linecap:round;stroke-linejoin:round;-inkscape-stroke:none"
           d="m 34.470764,252.8709 c -0.581194,0 -1.0565,0.4772 -1.056783,1.05834 h 8.994283 c 0.581372,0 1.058852,0.47749 1.058852,1.05885 v 6.08438 c 0.581137,-2.9e-4 1.058334,-0.47559 1.058334,-1.05678 v -6.08594 c 0,-0.58136 -0.477481,-1.05885 -1.058852,-1.05885 z" />
        <path
           id="path30199"
           style="color:#000000;fill:#143441;fill-opacity:1;stroke-width:0.794878;stroke-linecap:round;stroke-linejoin:round;-inkscape-stroke:none"
           d="m 31.560348,261.60164 c -0.355111,0 -0.658374,0.23923 -0.758093,0.56379 4.982134,-0.0808 10.038986,-0.0346 15.045593,-0.0346 0.435245,0 0.794787,0.35955 0.794784,0.79479 v 0.26355 c 0,0.30188 -0.08537,0.58485 -0.23306,0.82579 0.456295,-0.2797 0.762227,-0.78323 0.762227,-1.35496 v -0.26355 c 3e-6,-0.43524 -0.35954,-0.79478 -0.794784,-0.79478 z"
           sodipodi:nodetypes="cccsscsscc" />
      </g>
      <path
         id="rect1463"
         style="color:#000000;display:inline;fill:#000000;stroke-width:0.794878;stroke-linecap:round;stroke-linejoin:round;-inkscape-stroke:none"
         d="m 33.677533,251.81257 c -0.727493,0 -1.321885,0.59491 -1.321885,1.3224 v 2.24999 h -1.324467 c -0.14532,5.6e-4 -0.262983,0.11823 -0.263549,0.26355 -5.29e-4,0.14613 0.117425,0.26505 0.263549,0.26562 h 0.265618 v 1.85157 h -0.265618 c -0.146124,5.8e-4 -0.264121,0.11949 -0.263549,0.26561 5.29e-4,0.14532 0.118229,0.26298 0.263549,0.26355 h 0.841293 c -0.02988,0.0833 -0.04651,0.1727 -0.04651,0.26562 v 0.39636 c 0,0.0923 0.01646,0.18138 0.04599,0.26406 h -0.442352 c -0.146933,-5.8e-4 -0.266189,0.11869 -0.265615,0.26562 5.29e-4,0.14613 0.119491,0.26412 0.265615,0.26355 h 0.263552 v 1.85157 h -0.263552 c -0.416846,0.015 -0.653452,0.43058 -0.661974,0.79478 v 0.26355 c 0,0.87362 0.714399,1.58802 1.588016,1.58802 h 13.228135 c 0.87362,0 1.588016,-0.7144 1.588016,-1.58802 v -0.26355 c 3e-6,-0.43524 -0.35954,-0.79478 -0.794784,-0.79478 h -0.793232 v -8.46667 c 0,-0.72749 -0.594392,-1.3224 -1.321885,-1.3224 z m 0,0.52917 h 10.584365 c 0.441505,0 0.792718,0.35172 0.792718,0.79323 v 8.46667 h -6.748425 c 0.116043,-0.15397 0.199834,-0.33395 0.239778,-0.52917 h 4.920629 c 0.581371,0 1.058852,-0.47541 1.058852,-1.05678 v -6.08594 c 0,-0.58136 -0.477481,-1.05885 -1.058852,-1.05885 h -8.995834 c -0.581366,0 -1.05678,0.47748 -1.056783,1.05885 v 1.45521 h -0.529166 v -2.24999 c 0,-0.44151 0.351213,-0.79323 0.792718,-0.79323 z m 0.793231,1.05885 h 8.995834 c 0.295386,0 0.529685,0.23379 0.529685,0.52916 v 6.08594 c 0,0.29538 -0.234299,0.52916 -0.529685,0.52916 h -4.894273 c -3e-6,-0.30185 -0.102614,-0.58106 -0.274402,-0.8046 0.378012,-0.0595 0.670761,-0.38971 0.670758,-0.78341 v -0.39636 c 1.1e-5,-0.43525 -0.357468,-0.79478 -0.792716,-0.79478 h -0.266133 c 0.166806,-0.22132 0.266133,-0.49626 0.266133,-0.79324 v -0.26561 c -2e-6,-0.7275 -0.59491,-1.32189 -1.3224,-1.32189 h -2.910417 v -1.45521 c 0,-0.29538 0.23223,-0.52916 0.527616,-0.52916 z m 6.693133,2.26136 -1.122929,1.12344 c -0.103645,0.10338 -0.103645,0.27128 0,0.37466 0.103439,0.10399 0.271733,0.10399 0.375172,0 l 1.120859,-1.12293 c 0.10399,-0.10344 0.10399,-0.27173 0,-0.37517 -0.147899,-0.11368 -0.27061,-0.0797 -0.373102,0 z m -9.337932,0.25218 h 5.0276 c 0.441507,0 0.792715,0.3512 0.792718,0.79272 v 0.26561 c -3e-6,0.39685 -0.283903,0.72089 -0.661977,0.78238 v -0.91519 c -5.29e-4,-0.14531 -0.118237,-0.26296 -0.263549,-0.26355 H 33.66978 c -0.146126,-5.8e-4 -0.265049,0.11743 -0.265617,0.26355 2.64e-4,0.14633 0.11929,0.26464 0.265617,0.26407 h 1.19941 v 0.66198 h -3.043225 v -0.66198 h 0.800984 c 0.146328,5.8e-4 0.265332,-0.11774 0.265618,-0.26407 -5.29e-4,-0.14612 -0.119491,-0.26412 -0.265618,-0.26355 h -0.800984 z m 10.461377,0.12299 -1.871202,1.8712 c -0.102614,0.1032 -0.102614,0.2699 0,0.37311 0.103203,0.10261 0.269899,0.10261 0.373102,0 l 1.870689,-1.87121 c 0.102613,-0.1032 0.102613,-0.2699 0,-0.3731 -0.148389,-0.11444 -0.282067,-0.0852 -0.372589,0 z m -6.888986,1.0666 h 1.056783 v 1.74201 l -0.342098,-0.34158 c -0.103148,-0.10225 -0.269439,-0.10225 -0.372586,0 l -0.342099,0.34158 z m -2.779157,1.19114 h 2.249991 v 0.92604 h -2.249991 c -0.149256,0 -0.263551,-0.1148 -0.263551,-0.26406 v -0.39636 c -3e-6,-0.14927 0.114287,-0.26562 0.263551,-0.26562 z m 4.365107,0 h 1.191659 c 0.149265,0 0.263555,0.11635 0.263549,0.26562 v 0.39636 c 3e-6,0.14926 -0.114289,0.26406 -0.263549,0.26406 h -1.191659 z m -0.261485,1.45521 h 0.5271 c 0.441508,0 0.793232,0.35328 0.793234,0.79479 v 0.26355 c -2e-6,0.44151 -0.351726,0.79323 -0.793234,0.79323 h -5.027083 v -0.66043 h 0.802534 c 0.146127,-5.8e-4 0.264123,-0.11949 0.263551,-0.26561 -5.29e-4,-0.14532 -0.118231,-0.26299 -0.263551,-0.26355 h -0.802534 v -0.66198 h 2.9099 c 0.08975,0.001 0.144463,-0.0327 0.187728,-0.078 l 0.607057,-0.60565 0.605647,0.60565 c 0.05419,0.0514 0.115975,0.0822 0.189651,0.078 z m -2.656166,0.66198 c -0.14552,2.9e-4 -0.263498,0.11802 -0.264067,0.26355 -5.29e-4,0.14632 0.11774,0.26533 0.264067,0.26561 h 1.462443 c 0.146933,5.8e-4 0.266192,-0.11868 0.265617,-0.26561 -5.29e-4,-0.14613 -0.119491,-0.26413 -0.265617,-0.26355 z m -2.506308,1.71875 h 5.074111 c -0.03002,0.0833 -0.04651,0.17271 -0.04651,0.26562 0,0.43524 0.359558,0.79323 0.794781,0.79323 H 40.5567 c 0.435223,0 0.794782,-0.35799 0.794782,-0.79323 0,-0.0929 -0.01648,-0.18235 -0.04651,-0.26562 h 5.072042 c 0.149262,0 0.265617,0.11636 0.265617,0.26562 v 0.26355 c 0,0.58763 -0.471212,1.05885 -1.058849,1.05885 H 32.355648 c -0.587637,0 -1.058849,-0.47122 -1.058849,-1.05885 v -0.26355 c 0,-0.14926 0.114289,-0.26562 0.263548,-0.26562 z m 5.822384,0 H 40.5567 c 0.149246,0 0.265615,0.11633 0.265615,0.26562 0,0.14928 -0.116369,0.26355 -0.265615,0.26355 h -3.173969 c -0.149246,0 -0.265615,-0.11427 -0.265615,-0.26355 0,-0.14928 0.116377,-0.26562 0.265615,-0.26562 z m -1.588016,0.52865 c -0.146933,-5.8e-4 -0.266192,0.11869 -0.265617,0.26562 2.64e-4,0.14633 0.11929,0.26464 0.265617,0.26407 0.145521,-5.9e-4 0.263266,-0.11855 0.263549,-0.26407 5.29e-4,-0.14613 -0.117422,-0.26505 -0.263549,-0.26562 z m 6.350001,0 c -0.146934,-5.8e-4 -0.266192,0.11869 -0.265618,0.26562 2.64e-4,0.14633 0.11929,0.26464 0.265618,0.26407 0.14552,-5.9e-4 0.263265,-0.11855 0.263548,-0.26407 5.3e-4,-0.14613 -0.117422,-0.26505 -0.263548,-0.26562 z"
         sodipodi:nodetypes="ssccsccccscccsccscccccsssssscsssssscccssssssccsssssssccscscssscssccccccccssscccccccccccccccccccccccccccccsccsssscscsccccsssscccscccccccccsccsccscssssccssssssssssssssscscsscscs" />
    </g>
  </g>
</svg>
